<svg version="1.1" id="Layer_1" xmlns="http://www.w3.org/2000/svg" xmlns:xlink="http://www.w3.org/1999/xlink" x="0px" y="0px"
	 width="100%" viewBox="0 0 103 108" enable-background="new 0 0 103 108" xml:space="preserve">
<path fill="#FEFDFD" opacity="1.000000" stroke="none" 
	d="
M60.000000,109.000000 
	C40.000000,109.000000 20.500000,109.000000 1.000000,109.000000 
	C1.000000,73.000000 1.000000,37.000000 1.000000,1.000000 
	C35.333332,1.000000 69.666664,1.000000 104.000000,1.000000 
	C104.000000,37.000000 104.000000,73.000000 104.000000,109.000000 
	C89.500000,109.000000 75.000000,109.000000 60.000000,109.000000 
M31.098698,18.738253 
	C30.158173,19.086288 29.217649,19.434324 27.830631,19.643295 
	C27.511232,19.688391 27.233221,19.820541 26.219315,19.993582 
	C23.136679,20.974173 20.054043,21.954765 16.288330,22.862764 
	C15.857960,22.999655 15.427589,23.136547 14.284532,23.355074 
	C12.116230,23.991299 9.947927,24.627522 6.792531,25.553379 
	C10.487579,26.504757 13.238263,27.212984 16.374113,28.131439 
	C16.374113,28.131439 16.809715,28.078529 17.291578,28.902746 
	C17.150736,34.135239 16.886148,39.368500 16.918488,44.599918 
	C16.936054,47.441647 17.458668,50.280254 17.753477,53.120270 
	C18.395365,53.128746 19.037252,53.137222 19.679138,53.145699 
	C20.068144,51.361191 20.810545,49.570602 20.779978,47.793308 
	C20.687799,42.433781 20.238216,37.081028 20.086945,31.721144 
	C20.066601,31.000307 20.959026,30.253710 21.558558,29.538137 
	C21.558558,29.538137 21.689201,29.549919 22.262167,29.941065 
	C24.098316,30.335938 25.934464,30.730812 28.179283,31.586037 
	C28.765223,31.767017 29.351160,31.948000 29.938061,33.049892 
	C29.890907,48.016560 29.843754,62.983223 28.964382,77.918770 
	C23.805113,77.501472 18.467834,75.769989 13.992970,79.996902 
	C13.992970,79.996902 13.950694,79.936241 13.218141,79.909271 
	C9.188147,82.569359 6.579427,86.203323 8.496501,90.998703 
	C11.495005,98.499191 17.997120,99.678154 25.249361,99.259277 
	C30.393101,98.962181 33.996704,96.869629 36.133682,91.185394 
	C36.261768,75.714622 36.389851,60.243851 37.112782,44.397293 
	C48.856205,42.907799 60.599632,41.418304 72.323158,40.874916 
	C72.325729,51.272961 72.328300,61.671009 71.646713,72.155174 
	C71.418709,72.184196 71.190697,72.213219 70.346146,71.944977 
	C69.896797,71.964645 69.447449,71.984306 68.326660,71.863853 
	C67.879501,71.956116 67.432350,72.048378 66.115784,72.003326 
	C55.566628,71.887230 50.748055,75.729317 51.008369,84.699150 
	C53.831551,91.217911 59.594051,94.549423 66.977631,93.931557 
	C73.514641,93.384529 77.401817,90.128365 79.065384,83.057419 
	C79.117271,66.056335 79.169167,49.055252 79.959129,31.942238 
	C87.075920,29.860094 94.192711,27.777950 102.131195,25.455404 
	C91.448761,22.441133 81.284920,20.412073 71.788383,16.683445 
	C59.629505,11.909497 48.056530,12.348577 36.280743,17.136154 
	C36.127819,17.198328 35.988686,17.294405 35.113617,17.514446 
	C33.991604,17.933720 32.869591,18.352993 31.895571,18.814436 
	C31.895571,18.814436 31.873819,18.662100 31.098698,18.738253 
z"/>
<path fill="#C30913" opacity="1.000000" stroke="none" 
	d="
M35.843113,17.374659 
	C35.988686,17.294405 36.127819,17.198328 36.280743,17.136154 
	C48.056530,12.348577 59.629505,11.909497 71.788383,16.683445 
	C81.284920,20.412073 91.448761,22.441133 102.131195,25.455404 
	C94.192711,27.777950 87.075920,29.860094 79.245026,32.240562 
	C78.354759,33.332527 78.026566,34.125851 78.024910,34.919853 
	C77.993172,50.190903 77.982162,65.462090 78.035767,80.733009 
	C78.039558,81.813835 78.577148,82.892792 78.866531,83.972618 
	C77.401817,90.128365 73.514641,93.384529 66.977631,93.931557 
	C59.594051,94.549423 53.831551,91.217911 51.292561,84.161179 
	C52.117943,83.055763 52.659130,82.488327 53.542412,81.896744 
	C56.458679,78.349045 59.591721,75.754532 64.144455,75.173676 
	C64.768440,75.094063 65.240219,73.821594 66.026459,73.000381 
	C66.508698,72.646461 66.746948,72.393547 66.985191,72.140640 
	C67.432350,72.048378 67.879501,71.956116 68.790634,72.154091 
	C69.823967,72.376968 70.393326,72.309608 70.962685,72.242249 
	C71.190697,72.213219 71.418709,72.184196 72.345642,71.953232 
	C73.351028,71.199371 73.920677,70.649338 73.924667,70.095238 
	C73.990570,60.940292 74.031715,51.784286 73.923752,42.630344 
	C73.913063,41.723743 72.894066,40.829037 72.343056,39.928810 
	C60.599632,41.418304 48.856205,42.907799 36.435509,44.845955 
	C35.506653,46.223309 35.039181,47.151245 35.035912,48.080814 
	C34.987671,61.788937 34.985641,75.497337 35.034607,89.205452 
	C35.037891,90.125137 35.537674,91.043060 35.806534,91.961800 
	C33.996704,96.869629 30.393101,98.962181 25.249361,99.259277 
	C17.997120,99.678154 11.495005,98.499191 8.496501,90.998703 
	C6.579427,86.203323 9.188147,82.569359 13.891212,80.194771 
	C13.085638,82.493011 11.606994,84.505753 9.828936,86.926056 
	C14.912508,84.290329 19.246887,82.043045 24.701807,79.214790 
	C20.423784,79.508797 17.177866,79.731865 13.931949,79.954941 
	C18.467834,75.769989 23.805113,77.501472 29.722246,77.688019 
	C30.649384,76.831284 30.953220,76.208496 30.968163,75.578850 
	C31.304367,61.412739 31.621443,47.246075 31.835726,33.077904 
	C31.840364,32.771240 30.597837,32.445709 29.937099,32.128983 
	C29.351160,31.948000 28.765223,31.767017 28.168312,31.146795 
	C26.001293,30.321674 23.845247,29.935797 21.689201,29.549919 
	C21.689201,29.549919 21.558558,29.538137 21.644957,29.151749 
	C20.990343,25.424305 20.990343,25.424305 16.809715,28.078529 
	C16.809715,28.078529 16.374113,28.131439 16.049263,27.766291 
	C13.806061,26.320499 13.787539,24.905157 14.997218,23.273438 
	C15.427589,23.136547 15.857960,22.999655 16.840443,23.162270 
	C20.593903,22.321096 23.795250,21.180422 26.996597,20.039745 
	C27.233221,19.820541 27.511232,19.688391 28.476839,19.770205 
	C30.039970,19.485443 30.956896,19.073771 31.873819,18.662100 
	C31.873819,18.662100 31.895571,18.814436 32.238750,18.860245 
	C33.668991,18.395588 34.756054,17.885124 35.843113,17.374659 
M33.519501,33.412155 
	C33.519501,33.412155 33.580761,33.523335 33.519501,33.412155 
z"/>
<path fill="#C2090B" opacity="1.000000" stroke="none" 
	d="
M17.050648,28.490639 
	C20.990343,25.424305 20.990343,25.424305 21.580070,29.142199 
	C20.959026,30.253710 20.066601,31.000307 20.086945,31.721144 
	C20.238216,37.081028 20.687799,42.433781 20.779978,47.793308 
	C20.810545,49.570602 20.068144,51.361191 19.679138,53.145699 
	C19.037252,53.137222 18.395365,53.128746 17.753477,53.120270 
	C17.458668,50.280254 16.936054,47.441647 16.918488,44.599918 
	C16.886148,39.368500 17.150736,34.135239 17.050648,28.490639 
z"/>
<path fill="#C20000" opacity="1.000000" stroke="none" 
	d="
M35.970108,91.573593 
	C35.537674,91.043060 35.037891,90.125137 35.034607,89.205452 
	C34.985641,75.497337 34.987671,61.788937 35.035912,48.080814 
	C35.039181,47.151245 35.506653,46.223309 36.138084,45.033844 
	C36.389851,60.243851 36.261768,75.714622 35.970108,91.573593 
z"/>
<path fill="#C20000" opacity="1.000000" stroke="none" 
	d="
M72.333107,40.401863 
	C72.894066,40.829037 73.913063,41.723743 73.923752,42.630344 
	C74.031715,51.784286 73.990570,60.940292 73.924667,70.095238 
	C73.920677,70.649338 73.351028,71.199371 72.687721,71.910172 
	C72.328300,61.671009 72.325729,51.272961 72.333107,40.401863 
z"/>
<path fill="#C20000" opacity="1.000000" stroke="none" 
	d="
M78.965958,83.515015 
	C78.577148,82.892792 78.039558,81.813835 78.035767,80.733009 
	C77.982162,65.462090 77.993172,50.190903 78.024910,34.919853 
	C78.026566,34.125851 78.354759,33.332527 78.875992,32.296532 
	C79.169167,49.055252 79.117271,66.056335 78.965958,83.515015 
z"/>
<path fill="#C20000" opacity="1.000000" stroke="none" 
	d="
M29.937580,32.589439 
	C30.597837,32.445709 31.840364,32.771240 31.835726,33.077904 
	C31.621443,47.246075 31.304367,61.412739 30.968163,75.578850 
	C30.953220,76.208496 30.649384,76.831284 30.138355,77.703583 
	C29.843754,62.983223 29.890907,48.016560 29.937580,32.589439 
z"/>
<path fill="#C20809" opacity="1.000000" stroke="none" 
	d="
M66.550491,72.071983 
	C66.746948,72.393547 66.508698,72.646461 65.640427,73.005554 
	C57.624096,73.959511 54.094028,76.592598 53.200317,81.920891 
	C52.659130,82.488327 52.117943,83.055763 51.335281,83.802147 
	C50.748055,75.729317 55.566628,71.887230 66.550491,72.071983 
z"/>
<path fill="#C2090B" opacity="1.000000" stroke="none" 
	d="
M14.640875,23.314255 
	C13.787539,24.905157 13.806061,26.320499 15.856680,27.661179 
	C13.238263,27.212984 10.487579,26.504757 6.792531,25.553379 
	C9.947927,24.627522 12.116230,23.991299 14.640875,23.314255 
z"/>
<path fill="#C2090B" opacity="1.000000" stroke="none" 
	d="
M26.607956,20.016663 
	C23.795250,21.180422 20.593903,22.321096 17.181980,23.198565 
	C20.054043,21.954765 23.136679,20.974173 26.607956,20.016663 
z"/>
<path fill="#C2090B" opacity="1.000000" stroke="none" 
	d="
M21.975685,29.745491 
	C23.845247,29.935797 26.001293,30.321674 27.963976,30.916620 
	C25.934464,30.730812 24.098316,30.335938 21.975685,29.745491 
z"/>
<path fill="#C2090B" opacity="1.000000" stroke="none" 
	d="
M35.478363,17.444553 
	C34.756054,17.885124 33.668991,18.395588 32.164757,18.839159 
	C32.869591,18.352993 33.991604,17.933720 35.478363,17.444553 
z"/>
<path fill="#C2090B" opacity="1.000000" stroke="none" 
	d="
M31.486259,18.700176 
	C30.956896,19.073771 30.039970,19.485443 28.700085,19.839737 
	C29.217649,19.434324 30.158173,19.086288 31.486259,18.700176 
z"/>
<path fill="#C20809" opacity="1.000000" stroke="none" 
	d="
M70.654419,72.093613 
	C70.393326,72.309608 69.823967,72.376968 69.126358,72.224152 
	C69.447449,71.984306 69.896797,71.964645 70.654419,72.093613 
z"/>
<path fill="#F1CECF" opacity="1.000000" stroke="none" 
	d="
M53.542416,81.896744 
	C54.094028,76.592598 57.624096,73.959511 65.396439,73.106567 
	C65.240219,73.821594 64.768440,75.094063 64.144455,75.173676 
	C59.591721,75.754532 56.458679,78.349045 53.542416,81.896744 
z"/>
<path fill="#F6DFE0" opacity="1.000000" stroke="none" 
	d="
M13.962460,79.975922 
	C17.177866,79.731865 20.423784,79.508797 24.701807,79.214790 
	C19.246887,82.043045 14.912508,84.290329 9.828936,86.926056 
	C11.606994,84.505753 13.085638,82.493011 14.257488,80.208252 
	C13.950694,79.936241 13.992970,79.996902 13.962460,79.975922 
z"/>
<path fill="#C20000" opacity="1.000000" stroke="none" 
	d="
M33.550133,33.467743 
	C33.580761,33.523335 33.519501,33.412155 33.550133,33.467743 
z"/>
</svg>