<svg version="1.1" id="Layer_1" xmlns="http://www.w3.org/2000/svg" xmlns:xlink="http://www.w3.org/1999/xlink" x="0px" y="0px"
	 width="100%" viewBox="0 0 500 159" enable-background="new 0 0 500 159" xml:space="preserve">
<path fill="#FEFEFE" opacity="1.000000" stroke="none" 
	d="
M353.000000,160.000000 
	C235.333420,160.000000 118.166832,160.000000 1.000189,160.000000 
	C1.000126,107.000122 1.000126,54.000244 1.000063,1.000274 
	C167.666428,1.000183 334.332855,1.000183 500.999451,1.000091 
	C500.999634,53.999722 500.999634,106.999443 500.999817,159.999573 
	C451.833344,160.000000 402.666656,160.000000 353.000000,160.000000 
M370.141663,108.052910 
	C364.655853,103.611694 361.914734,103.640068 355.552063,108.203918 
	C350.147064,104.471146 350.149933,104.481537 342.400146,106.612221 
	C341.962402,106.732590 341.416901,106.450935 340.919739,106.367325 
	C338.477264,105.956535 336.034149,105.549477 333.302155,105.092758 
	C333.302155,113.184021 333.302155,120.415596 333.302155,127.733025 
	C335.925751,127.733025 338.311981,127.733025 340.962494,127.733025 
	C340.962494,123.646500 340.591858,119.791451 341.123138,116.064987 
	C341.378296,114.275536 343.337677,112.729065 344.525238,111.072556 
	C345.809814,112.677383 347.949371,114.158005 348.204224,115.912430 
	C348.766510,119.782875 348.378967,123.791298 348.378967,127.664597 
	C351.321167,127.664597 353.713715,127.664597 356.180847,127.664597 
	C356.180847,123.816277 356.176910,120.323441 356.182098,116.830620 
	C356.186188,114.059441 356.252228,111.044716 360.035767,111.164818 
	C363.675568,111.280350 363.805878,114.280128 363.825958,117.036819 
	C363.852142,120.635796 363.832367,124.235115 363.832367,127.785637 
	C366.681671,127.785637 368.940979,127.785637 371.945374,127.785637 
	C371.537598,120.960152 371.145599,114.399277 371.548706,107.542397 
	C374.112457,111.991066 376.520569,116.540062 379.299011,120.850357 
	C380.935547,123.389206 381.083679,125.448143 379.492310,128.069229 
	C377.395813,131.522369 375.736023,135.240631 373.888428,138.844894 
	C374.137756,139.265930 374.387085,139.686966 374.636414,140.108002 
	C377.561432,139.280975 382.034485,139.368515 383.153412,137.474503 
	C389.182587,127.269058 394.379089,116.571693 399.809387,106.146744 
	C389.340515,101.891739 389.420776,111.677353 385.663208,116.622803 
	C383.854675,113.276009 382.755463,109.914162 380.546539,107.621437 
	C379.077759,106.096909 376.053589,105.827133 373.663330,105.566116 
	C372.823456,105.474403 371.798126,107.081100 370.141663,108.052910 
M233.750687,123.952286 
	C234.849365,124.634018 235.985840,125.262215 237.040222,126.006676 
	C241.874939,129.420242 246.812256,129.433884 252.260345,126.610916 
	C251.349304,124.843460 250.550568,123.293861 249.751831,121.744270 
	C249.513672,122.129654 249.275528,122.515038 249.037369,122.900414 
	C246.495026,121.845078 243.503448,121.280319 241.594940,119.532761 
	C240.602325,118.623856 240.705124,114.708679 241.756073,113.773994 
	C243.645782,112.093330 246.622498,111.634834 249.145050,110.665710 
	C249.368973,111.050995 249.592896,111.436272 249.816818,111.821548 
	C250.579361,110.241264 251.341888,108.660980 252.076645,107.138268 
	C243.838196,101.225090 231.815598,107.590004 232.189423,117.472748 
	C232.220428,118.292557 231.420517,119.143791 230.976944,119.223946 
	C227.715408,111.061043 224.576401,102.844833 221.071365,94.787872 
	C220.489243,93.449745 218.347107,92.102493 216.860107,92.025246 
	C215.121613,91.934914 212.236389,92.764977 211.699692,94.000076 
	C206.884735,105.080902 202.477325,116.338829 197.829544,127.843124 
	C201.049362,127.843124 203.825607,127.843124 207.132614,127.843124 
	C206.936249,120.486748 211.755341,120.246368 217.158478,120.816681 
	C218.475723,120.955727 219.869446,120.622818 221.135620,120.911743 
	C222.104202,121.132774 223.610931,121.894791 223.708588,122.582314 
	C224.633514,129.093765 229.158997,128.368225 233.582977,127.799965 
	C233.397095,126.536514 233.211212,125.273026 233.750687,123.952286 
M239.132446,79.135628 
	C238.277191,69.767563 237.421936,60.399498 236.576004,51.133514 
	C227.862808,50.462902 227.875443,50.467751 225.052765,57.820534 
	C223.428940,62.050461 221.756302,66.261650 219.736343,71.425323 
	C217.654160,66.093872 216.020966,61.931011 214.401993,57.762627 
	C211.362137,49.935753 211.365555,49.934425 202.879471,51.409008 
	C201.844482,63.175831 200.805084,74.992821 199.767685,86.787025 
	C202.963547,86.787025 205.409637,86.787025 207.864868,86.787025 
	C208.469513,80.353630 209.053268,74.142410 209.637039,67.931183 
	C212.386063,72.783119 214.070312,77.618645 215.841492,82.422112 
	C216.582550,84.431885 216.546921,87.743340 219.897873,86.695320 
	C221.463425,86.205681 222.975296,84.179932 223.662552,82.502579 
	C225.715591,77.491798 227.349045,72.309097 229.146362,67.193542 
	C229.412155,67.291122 229.677933,67.388710 229.943710,67.486298 
	C230.499756,73.919159 231.055801,80.352020 231.599075,86.637238 
	C234.546707,86.637238 237.097794,86.637238 239.673370,86.637238 
	C239.673370,83.993759 239.673370,81.725586 240.535004,79.723076 
	C241.644653,87.612831 250.613052,88.560478 257.498749,87.142830 
	C261.326202,86.354828 264.118622,84.228813 264.423096,80.344803 
	C264.829803,75.156166 264.523651,69.911644 264.523651,64.660858 
	C261.954834,64.660858 259.692749,64.660858 257.005096,64.660858 
	C257.005096,68.525368 257.035431,72.145424 256.995453,75.764702 
	C256.963623,78.649529 256.368347,81.126617 252.699600,81.197754 
	C248.987396,81.269737 248.347534,78.684464 248.239304,75.884354 
	C248.094742,72.144737 248.203552,68.395340 248.203552,64.740997 
	C245.209534,64.740997 242.971207,64.740997 240.723633,64.740997 
	C240.387512,69.902756 240.073105,74.731186 239.132446,79.135628 
M141.869370,62.791080 
	C149.366959,60.459450 156.864548,58.127815 164.362122,55.796185 
	C161.559967,53.695770 159.223572,52.601944 156.775406,51.895222 
	C143.362534,48.023247 129.945541,44.159943 116.468521,40.521214 
	C114.212990,39.912228 111.512268,39.887131 109.261986,40.496292 
	C94.503120,44.491558 79.810852,48.732910 65.098671,52.900414 
	C63.129314,53.458275 61.170319,54.052727 59.206524,54.630234 
	C61.358994,56.137501 63.358734,56.936989 65.429825,57.227127 
	C69.366989,57.778675 70.582260,59.854698 70.190605,63.694519 
	C69.604156,69.444077 69.417145,75.234375 68.637413,81.279053 
	C68.888046,82.019096 69.138680,82.759148 69.538261,84.100578 
	C70.046013,84.997047 70.553757,85.893509 71.817795,88.125252 
	C74.906700,77.239586 71.670082,67.514191 73.174408,59.177559 
	C76.490334,60.238834 80.052238,61.378830 83.894829,63.100937 
	C84.089729,63.483513 84.284637,63.866089 84.289406,65.133820 
	C84.289406,81.923454 84.289406,98.713089 84.289406,115.893211 
	C82.372559,115.494202 81.105423,115.167747 79.818352,114.973099 
	C73.349609,113.994820 67.527847,115.459518 62.786530,120.056862 
	C58.344181,124.364326 58.134995,130.244049 61.971008,134.916031 
	C66.495544,140.426575 75.544487,142.616150 83.055344,140.017807 
	C89.393967,137.824997 92.268959,133.039734 92.276955,124.574699 
	C92.290634,110.081253 92.207932,95.586861 92.392212,81.095749 
	C92.411285,79.595863 93.780586,76.966522 94.829460,76.801025 
	C107.426369,74.813393 120.081070,73.192101 133.013855,71.435326 
	C133.013855,84.309059 133.013855,96.537529 133.013855,107.593147 
	C127.046158,108.462990 121.571228,109.261002 115.421623,110.109314 
	C114.592361,111.000481 113.763092,111.891647 112.225349,112.985100 
	C106.845505,119.002518 107.400261,126.503784 113.877724,130.761215 
	C120.305557,134.986008 127.260277,135.645538 134.268524,132.166016 
	C138.374359,130.127502 141.007462,126.879456 141.160995,121.500465 
	C141.110626,121.332138 141.060242,121.163818 141.230042,120.080978 
	C141.157211,101.388771 141.084366,82.696564 141.186554,63.540485 
	C141.186554,63.540485 141.168442,63.045029 141.869370,62.791080 
M297.868683,99.385025 
	C297.868683,101.797150 297.868683,104.209274 297.868683,107.106300 
	C296.752350,106.588234 296.189636,106.297760 295.605347,106.060463 
	C289.944885,103.761620 285.003967,104.870193 281.753052,109.158463 
	C278.367157,113.624771 278.408539,120.092400 281.850891,124.453812 
	C285.214874,128.715927 289.833588,129.616394 295.687256,127.182045 
	C296.368103,126.898895 297.172577,126.464317 297.809479,126.603714 
	C300.248505,127.137550 302.642548,127.877014 305.391296,128.632629 
	C305.391296,115.231529 305.391296,102.852966 305.391296,90.365250 
	C302.827698,90.365250 300.576721,90.365250 297.868683,90.365250 
	C297.868683,93.201973 297.868683,95.821426 297.868683,99.385025 
M276.251862,105.449028 
	C272.129547,105.264778 268.136627,106.332878 263.826202,105.145645 
	C259.040527,103.827499 255.159180,106.580475 252.865921,111.054298 
	C250.516861,115.637001 251.399246,121.983215 254.960602,125.430191 
	C258.574554,128.928024 262.778168,129.529755 267.378479,127.520233 
	C268.199005,127.161812 269.128998,126.497383 269.881165,126.640945 
	C272.377930,127.117508 274.816620,127.898323 278.328400,128.846039 
	C277.878998,120.302689 277.492615,112.957054 276.251862,105.449028 
M307.947113,121.226692 
	C313.610443,130.578827 324.891052,131.429764 330.658142,122.677666 
	C328.128143,121.487770 326.299744,119.539726 322.823212,121.679649 
	C319.935760,123.456955 316.384430,122.775375 315.020569,117.870163 
	C320.610168,117.870163 325.829224,117.870163 331.164917,117.870163 
	C331.684631,112.505478 330.134216,108.514366 325.624939,106.280220 
	C320.997833,103.987686 316.202454,104.092430 311.985992,107.303467 
	C307.629303,110.621277 305.886139,115.032768 307.947113,121.226692 
M266.259033,84.414223 
	C269.803833,88.098236 274.196411,88.014412 278.744537,87.214447 
	C282.371429,86.576515 284.852295,84.830940 285.242554,80.822990 
	C285.636383,76.778633 283.322968,74.702080 280.043396,73.255028 
	C278.362915,72.513542 276.654266,71.835869 274.958344,71.129349 
	C275.079529,70.588158 275.200745,70.046967 275.321930,69.505775 
	C277.753204,69.665672 280.184509,69.825577 282.780914,69.996338 
	C283.419098,68.589226 284.082886,67.125618 285.196503,64.670303 
	C280.961365,64.479309 277.199707,63.556320 273.901794,64.414803 
	C271.539886,65.029640 268.998199,67.684196 267.976013,70.050461 
	C266.578735,73.284981 269.132935,75.574127 272.000885,77.082275 
	C273.774170,78.014778 275.540833,78.959846 277.310486,79.899269 
	C277.117249,80.544693 276.923981,81.190117 276.730743,81.835541 
	C274.140717,81.295929 271.550690,80.756310 268.724396,80.167473 
	C268.097534,81.222641 267.343170,82.492386 266.259033,84.414223 
M302.651031,86.047012 
	C307.119354,88.351822 311.505676,88.131187 316.208832,85.667252 
	C315.356750,83.915085 314.597839,82.354546 313.838959,80.794006 
	C313.613159,81.150604 313.387390,81.507202 313.161591,81.863800 
	C310.597382,80.855339 307.595337,80.344856 305.648926,78.633659 
	C304.637238,77.744240 304.662445,73.714828 305.673218,72.893799 
	C307.776276,71.185509 310.847351,70.668953 314.621613,69.248146 
	C314.733002,68.993385 315.429352,67.400925 316.123047,65.814415 
	C308.358490,62.382717 301.842712,63.885944 298.097687,69.667091 
	C294.612335,75.047409 295.981598,80.697258 302.651031,86.047012 
M286.908752,84.327995 
	C288.062653,90.072540 291.961121,85.649666 294.392944,86.891373 
	C294.392944,79.148338 294.392944,71.932381 294.392944,64.682617 
	C291.760895,64.682617 289.502563,64.682617 286.908386,64.682617 
	C286.908386,71.087746 286.908386,77.221664 286.908752,84.327995 
M295.247101,54.068882 
	C294.157532,52.977825 292.772430,50.802402 292.035034,51.003376 
	C289.997162,51.558800 288.229736,53.106628 286.355377,54.262077 
	C287.611511,56.091385 288.547058,59.040215 290.192108,59.511311 
	C293.379303,60.424030 295.306580,58.190857 295.247101,54.068882 
z"/>
<path fill="#C40C16" opacity="1.000000" stroke="none" 
	d="
M116.096306,110.059021 
	C121.571228,109.261002 127.046158,108.462990 133.013855,107.593147 
	C133.013855,96.537529 133.013855,84.309059 133.013855,71.435326 
	C120.081070,73.192101 107.426369,74.813393 94.829460,76.801025 
	C93.780586,76.966522 92.411285,79.595863 92.392212,81.095749 
	C92.207932,95.586861 92.290634,110.081253 92.276955,124.574699 
	C92.268959,133.039734 89.393967,137.824997 83.055344,140.017807 
	C75.544487,142.616150 66.495544,140.426575 61.971008,134.916031 
	C58.134995,130.244049 58.344181,124.364326 62.786530,120.056862 
	C67.527847,115.459518 73.349609,113.994820 79.818352,114.973099 
	C81.105423,115.167747 82.372559,115.494202 84.289406,115.893211 
	C84.289406,98.713089 84.289406,81.923454 84.726608,64.728592 
	C87.317406,64.826942 89.471008,65.330513 91.624603,65.834084 
	C91.724625,65.308304 91.824646,64.782524 91.924667,64.256744 
	C89.154495,63.677437 86.384323,63.098129 83.614143,62.518829 
	C80.052238,61.378830 76.490334,60.238834 73.174408,59.177559 
	C71.670082,67.514191 74.906700,77.239586 71.817795,88.125252 
	C70.553757,85.893509 70.046013,84.997047 69.620758,83.485825 
	C69.488922,82.249832 69.274582,81.628586 69.060242,81.007339 
	C69.417145,75.234375 69.604156,69.444077 70.190605,63.694519 
	C70.582260,59.854698 69.366989,57.778675 65.429825,57.227127 
	C63.358734,56.936989 61.358994,56.137501 59.206524,54.630234 
	C61.170319,54.052727 63.129314,53.458275 65.098671,52.900414 
	C79.810852,48.732910 94.503120,44.491558 109.261986,40.496292 
	C111.512268,39.887131 114.212990,39.912228 116.468521,40.521214 
	C129.945541,44.159943 143.362534,48.023247 156.775406,51.895222 
	C159.223572,52.601944 161.559967,53.695770 164.362122,55.796185 
	C156.864548,58.127815 149.366959,60.459450 141.335175,62.984604 
	C140.709335,63.268040 140.527664,63.420925 140.539795,63.438244 
	C140.680099,63.638802 140.849701,63.818859 141.011536,64.004356 
	C141.084366,82.696564 141.157211,101.388771 140.953354,120.628006 
	C140.608047,121.279335 140.458954,121.444702 140.484131,121.477875 
	C140.628784,121.668571 140.814758,121.827934 140.986710,121.997925 
	C141.007462,126.879456 138.374359,130.127502 134.268524,132.166016 
	C127.260277,135.645538 120.305557,134.986008 113.877724,130.761215 
	C107.400261,126.503784 106.845505,119.002518 112.895119,113.020248 
	C112.704590,115.266113 111.844292,117.476830 111.018349,119.599243 
	C116.155029,116.640915 120.886536,113.915932 125.618042,111.190956 
	C123.132179,111.020370 120.808731,111.621239 118.456604,111.770576 
	C117.709068,111.818039 116.885231,110.663521 116.096306,110.059021 
M75.141670,116.979752 
	C65.886322,118.588249 61.921310,121.787819 62.722816,125.548248 
	C66.886993,123.576553 71.205475,121.408493 75.632668,119.491501 
	C77.621201,118.630455 78.553108,118.128723 75.141670,116.979752 
M90.975121,106.499817 
	C90.975121,97.437149 90.975121,88.374481 90.975121,79.311813 
	C90.742722,79.318489 90.510330,79.325165 90.277931,79.331848 
	C90.277931,95.180466 90.277931,111.029091 90.277931,126.877716 
	C90.510307,126.879395 90.742683,126.881065 90.975060,126.882736 
	C90.975060,120.421715 90.975060,113.960686 90.975121,106.499817 
z"/>
<path fill="#070707" opacity="1.000000" stroke="none" 
	d="
M239.673370,79.457420 
	C239.673370,81.725586 239.673370,83.993759 239.673370,86.637238 
	C237.097794,86.637238 234.546707,86.637238 231.599075,86.637238 
	C231.055801,80.352020 230.499756,73.919159 229.943710,67.486298 
	C229.677933,67.388710 229.412155,67.291122 229.146362,67.193542 
	C227.349045,72.309097 225.715591,77.491798 223.662552,82.502579 
	C222.975296,84.179932 221.463425,86.205681 219.897873,86.695320 
	C216.546921,87.743340 216.582550,84.431885 215.841492,82.422112 
	C214.070312,77.618645 212.386063,72.783119 209.637039,67.931183 
	C209.053268,74.142410 208.469513,80.353630 207.864868,86.787025 
	C205.409637,86.787025 202.963547,86.787025 199.767685,86.787025 
	C200.805084,74.992821 201.844482,63.175831 202.879471,51.409008 
	C211.365555,49.934425 211.362137,49.935753 214.401993,57.762627 
	C216.020966,61.931011 217.654160,66.093872 219.736343,71.425323 
	C221.756302,66.261650 223.428940,62.050461 225.052765,57.820534 
	C227.875443,50.467751 227.862808,50.462902 236.576004,51.133514 
	C237.421936,60.399498 238.277191,69.767563 239.435547,79.312622 
	C239.738663,79.489616 239.673370,79.457420 239.673370,79.457420 
z"/>
<path fill="#080808" opacity="1.000000" stroke="none" 
	d="
M233.025330,124.009537 
	C233.211212,125.273026 233.397095,126.536514 233.582977,127.799965 
	C229.158997,128.368225 224.633514,129.093765 223.708588,122.582314 
	C223.610931,121.894791 222.104202,121.132774 221.135620,120.911743 
	C219.869446,120.622818 218.475723,120.955727 217.158478,120.816681 
	C211.755341,120.246368 206.936249,120.486748 207.132614,127.843124 
	C203.825607,127.843124 201.049362,127.843124 197.829544,127.843124 
	C202.477325,116.338829 206.884735,105.080902 211.699692,94.000076 
	C212.236389,92.764977 215.121613,91.934914 216.860107,92.025246 
	C218.347107,92.102493 220.489243,93.449745 221.071365,94.787872 
	C224.576401,102.844833 227.715408,111.061043 231.013565,119.938187 
	C231.708572,121.771461 232.366959,122.890495 233.025330,124.009537 
M215.860596,104.227722 
	C214.655090,107.177101 213.449600,110.126480 212.147903,113.311234 
	C215.127838,113.311234 217.462372,113.311234 220.298096,113.311234 
	C218.924301,109.853439 217.734268,106.858124 215.860596,104.227722 
z"/>
<path fill="#0B0B0B" opacity="1.000000" stroke="none" 
	d="
M370.753601,107.838402 
	C371.145599,114.399277 371.537598,120.960152 371.945374,127.785637 
	C368.940979,127.785637 366.681671,127.785637 363.832367,127.785637 
	C363.832367,124.235115 363.852142,120.635796 363.825958,117.036819 
	C363.805878,114.280128 363.675568,111.280350 360.035767,111.164818 
	C356.252228,111.044716 356.186188,114.059441 356.182098,116.830620 
	C356.176910,120.323441 356.180847,123.816277 356.180847,127.664597 
	C353.713715,127.664597 351.321167,127.664597 348.378967,127.664597 
	C348.378967,123.791298 348.766510,119.782875 348.204224,115.912430 
	C347.949371,114.158005 345.809814,112.677383 344.525238,111.072556 
	C343.337677,112.729065 341.378296,114.275536 341.123138,116.064987 
	C340.591858,119.791451 340.962494,123.646500 340.962494,127.733025 
	C338.311981,127.733025 335.925751,127.733025 333.302155,127.733025 
	C333.302155,120.415596 333.302155,113.184021 333.302155,105.092758 
	C336.034149,105.549477 338.477264,105.956535 340.919739,106.367325 
	C341.416901,106.450935 341.962402,106.732590 342.400146,106.612221 
	C350.149933,104.481537 350.147064,104.471146 355.552063,108.203918 
	C361.914734,103.640068 364.655853,103.611694 370.478455,107.957275 
	C370.815277,107.861641 370.753601,107.838402 370.753601,107.838402 
z"/>
<path fill="#0C0C0C" opacity="1.000000" stroke="none" 
	d="
M297.868683,98.912949 
	C297.868683,95.821426 297.868683,93.201973 297.868683,90.365250 
	C300.576721,90.365250 302.827698,90.365250 305.391296,90.365250 
	C305.391296,102.852966 305.391296,115.231529 305.391296,128.632629 
	C302.642548,127.877014 300.248505,127.137550 297.809479,126.603714 
	C297.172577,126.464317 296.368103,126.898895 295.687256,127.182045 
	C289.833588,129.616394 285.214874,128.715927 281.850891,124.453812 
	C278.408539,120.092400 278.367157,113.624771 281.753052,109.158463 
	C285.003967,104.870193 289.944885,103.761620 295.605347,106.060463 
	C296.189636,106.297760 296.752350,106.588234 297.868683,107.106300 
	C297.868683,104.209274 297.868683,101.797150 297.868683,98.912949 
M293.286591,121.979759 
	C294.813385,120.671356 297.660431,119.272270 297.578156,118.074409 
	C297.430176,115.920937 295.918518,112.700851 294.240875,112.144310 
	C292.615356,111.605064 288.910706,113.332420 288.158417,114.989838 
	C286.565796,118.498772 288.159271,121.418289 293.286591,121.979759 
z"/>
<path fill="#090909" opacity="1.000000" stroke="none" 
	d="
M276.679016,105.530220 
	C277.492615,112.957054 277.878998,120.302689 278.328400,128.846039 
	C274.816620,127.898323 272.377930,127.117508 269.881165,126.640945 
	C269.128998,126.497383 268.199005,127.161812 267.378479,127.520233 
	C262.778168,129.529755 258.574554,128.928024 254.960602,125.430191 
	C251.399246,121.983215 250.516861,115.637001 252.865921,111.054298 
	C255.159180,106.580475 259.040527,103.827499 263.826202,105.145645 
	C268.136627,106.332878 272.129547,105.264778 276.679016,105.530220 
M268.171234,112.540817 
	C263.405396,110.932030 260.308105,111.897430 260.130890,115.561806 
	C260.037994,117.482353 261.196289,120.230736 262.701569,121.226143 
	C263.978577,122.070595 267.917236,121.493111 268.301941,120.562546 
	C269.209198,118.367851 268.699371,115.587349 268.171234,112.540817 
z"/>
<path fill="#0B0B0B" opacity="1.000000" stroke="none" 
	d="
M370.836365,107.886963 
	C371.798126,107.081100 372.823456,105.474403 373.663330,105.566116 
	C376.053589,105.827133 379.077759,106.096909 380.546539,107.621437 
	C382.755463,109.914162 383.854675,113.276009 385.663208,116.622803 
	C389.420776,111.677353 389.340515,101.891739 399.809387,106.146744 
	C394.379089,116.571693 389.182587,127.269058 383.153412,137.474503 
	C382.034485,139.368515 377.561432,139.280975 374.636414,140.108002 
	C374.387085,139.686966 374.137756,139.265930 373.888428,138.844894 
	C375.736023,135.240631 377.395813,131.522369 379.492310,128.069229 
	C381.083679,125.448143 380.935547,123.389206 379.299011,120.850357 
	C376.520569,116.540062 374.112457,111.991066 371.151154,107.690399 
	C370.753601,107.838402 370.815277,107.861641 370.836365,107.886963 
z"/>
<path fill="#0F0F0F" opacity="1.000000" stroke="none" 
	d="
M239.748672,79.524612 
	C240.073105,74.731186 240.387512,69.902756 240.723633,64.740997 
	C242.971207,64.740997 245.209534,64.740997 248.203552,64.740997 
	C248.203552,68.395340 248.094742,72.144737 248.239304,75.884354 
	C248.347534,78.684464 248.987396,81.269737 252.699600,81.197754 
	C256.368347,81.126617 256.963623,78.649529 256.995453,75.764702 
	C257.035431,72.145424 257.005096,68.525368 257.005096,64.660858 
	C259.692749,64.660858 261.954834,64.660858 264.523651,64.660858 
	C264.523651,69.911644 264.829803,75.156166 264.423096,80.344803 
	C264.118622,84.228813 261.326202,86.354828 257.498749,87.142830 
	C250.613052,88.560478 241.644653,87.612831 240.104187,79.590248 
	C239.673370,79.457420 239.738663,79.489616 239.748672,79.524612 
z"/>
<path fill="#0C0C0C" opacity="1.000000" stroke="none" 
	d="
M307.825806,120.852608 
	C305.886139,115.032768 307.629303,110.621277 311.985992,107.303467 
	C316.202454,104.092430 320.997833,103.987686 325.624939,106.280220 
	C330.134216,108.514366 331.684631,112.505478 331.164917,117.870163 
	C325.829224,117.870163 320.610168,117.870163 315.020569,117.870163 
	C316.384430,122.775375 319.935760,123.456955 322.823212,121.679649 
	C326.299744,119.539726 328.128143,121.487770 330.658142,122.677666 
	C324.891052,131.429764 313.610443,130.578827 307.825806,120.852608 
M315.759918,111.901855 
	C318.217133,112.643936 320.674347,113.386017 323.131561,114.128098 
	C321.702118,109.101799 319.135284,109.034081 315.759918,111.901855 
z"/>
<path fill="#0A0A0A" opacity="1.000000" stroke="none" 
	d="
M266.423950,84.088181 
	C267.343170,82.492386 268.097534,81.222641 268.724396,80.167473 
	C271.550690,80.756310 274.140717,81.295929 276.730743,81.835541 
	C276.923981,81.190117 277.117249,80.544693 277.310486,79.899269 
	C275.540833,78.959846 273.774170,78.014778 272.000885,77.082275 
	C269.132935,75.574127 266.578735,73.284981 267.976013,70.050461 
	C268.998199,67.684196 271.539886,65.029640 273.901794,64.414803 
	C277.199707,63.556320 280.961365,64.479309 285.196503,64.670303 
	C284.082886,67.125618 283.419098,68.589226 282.780914,69.996338 
	C280.184509,69.825577 277.753204,69.665672 275.321930,69.505775 
	C275.200745,70.046967 275.079529,70.588158 274.958344,71.129349 
	C276.654266,71.835869 278.362915,72.513542 280.043396,73.255028 
	C283.322968,74.702080 285.636383,76.778633 285.242554,80.822990 
	C284.852295,84.830940 282.371429,86.576515 278.744537,87.214447 
	C274.196411,88.014412 269.803833,88.098236 266.423950,84.088181 
z"/>
<path fill="#0C0C0C" opacity="1.000000" stroke="none" 
	d="
M233.388000,123.980911 
	C232.366959,122.890495 231.708572,121.771461 231.028442,120.316422 
	C231.420517,119.143791 232.220428,118.292557 232.189423,117.472748 
	C231.815598,107.590004 243.838196,101.225090 252.076645,107.138268 
	C251.341888,108.660980 250.579361,110.241264 249.816818,111.821548 
	C249.592896,111.436272 249.368973,111.050995 249.145050,110.665710 
	C246.622498,111.634834 243.645782,112.093330 241.756073,113.773994 
	C240.705124,114.708679 240.602325,118.623856 241.594940,119.532761 
	C243.503448,121.280319 246.495026,121.845078 249.037369,122.900414 
	C249.275528,122.515038 249.513672,122.129654 249.751831,121.744270 
	C250.550568,123.293861 251.349304,124.843460 252.260345,126.610916 
	C246.812256,129.433884 241.874939,129.420242 237.040222,126.006676 
	C235.985840,125.262215 234.849365,124.634018 233.388000,123.980911 
z"/>
<path fill="#0B0B0B" opacity="1.000000" stroke="none" 
	d="
M302.317078,85.873062 
	C295.981598,80.697258 294.612335,75.047409 298.097687,69.667091 
	C301.842712,63.885944 308.358490,62.382717 316.123047,65.814415 
	C315.429352,67.400925 314.733002,68.993385 314.621613,69.248146 
	C310.847351,70.668953 307.776276,71.185509 305.673218,72.893799 
	C304.662445,73.714828 304.637238,77.744240 305.648926,78.633659 
	C307.595337,80.344856 310.597382,80.855339 313.161591,81.863800 
	C313.387390,81.507202 313.613159,81.150604 313.838959,80.794006 
	C314.597839,82.354546 315.356750,83.915085 316.208832,85.667252 
	C311.505676,88.131187 307.119354,88.351822 302.317078,85.873062 
z"/>
<path fill="#101010" opacity="1.000000" stroke="none" 
	d="
M286.908569,83.841782 
	C286.908386,77.221664 286.908386,71.087746 286.908386,64.682617 
	C289.502563,64.682617 291.760895,64.682617 294.392944,64.682617 
	C294.392944,71.932381 294.392944,79.148338 294.392944,86.891373 
	C291.961121,85.649666 288.062653,90.072540 286.908569,83.841782 
z"/>
<path fill="#101010" opacity="1.000000" stroke="none" 
	d="
M295.317963,54.415680 
	C295.306580,58.190857 293.379303,60.424030 290.192108,59.511311 
	C288.547058,59.040215 287.611511,56.091385 286.355377,54.262085 
	C288.229736,53.106628 289.997162,51.558800 292.035034,51.003376 
	C292.772430,50.802402 294.157532,52.977825 295.317963,54.415680 
z"/>
<path fill="#EFC2C3" opacity="1.000000" stroke="none" 
	d="
M115.758965,110.084167 
	C116.885231,110.663521 117.709068,111.818039 118.456604,111.770576 
	C120.808731,111.621239 123.132179,111.020370 125.618042,111.190956 
	C120.886536,113.915932 116.155029,116.640915 111.018349,119.599243 
	C111.844292,117.476830 112.704590,115.266113 113.249359,112.919106 
	C113.763092,111.891647 114.592361,111.000481 115.758965,110.084167 
z"/>
<path fill="#DC7172" opacity="1.000000" stroke="none" 
	d="
M83.754486,62.809883 
	C86.384323,63.098129 89.154495,63.677437 91.924667,64.256744 
	C91.824646,64.782524 91.724625,65.308304 91.624603,65.834084 
	C89.471008,65.330513 87.317406,64.826942 84.821671,64.286011 
	C84.284637,63.866089 84.089729,63.483513 83.754486,62.809883 
z"/>
<path fill="#D45C5E" opacity="1.000000" stroke="none" 
	d="
M68.848831,81.143196 
	C69.274582,81.628586 69.488922,82.249832 69.546280,83.185135 
	C69.138680,82.759148 68.888046,82.019096 68.848831,81.143196 
z"/>
<path fill="#C20001" opacity="1.000000" stroke="none" 
	d="
M141.073853,121.749191 
	C140.814758,121.827934 140.628784,121.668571 140.484131,121.477875 
	C140.458954,121.444702 140.608047,121.279335 140.843262,121.085258 
	C141.060242,121.163818 141.110626,121.332138 141.073853,121.749191 
z"/>
<path fill="#C20001" opacity="1.000000" stroke="none" 
	d="
M141.099045,63.772423 
	C140.849701,63.818859 140.680099,63.638802 140.539795,63.438244 
	C140.527664,63.420925 140.709335,63.268040 140.984711,63.111580 
	C141.168442,63.045029 141.186554,63.540485 141.099045,63.772423 
z"/>
<path fill="#EDBBBC" opacity="1.000000" stroke="none" 
	d="
M75.513672,116.993393 
	C78.553108,118.128723 77.621201,118.630455 75.632668,119.491501 
	C71.205475,121.408493 66.886993,123.576553 62.722816,125.548248 
	C61.921310,121.787819 65.886322,118.588249 75.513672,116.993393 
z"/>
<path fill="#C20206" opacity="1.000000" stroke="none" 
	d="
M90.975090,106.999741 
	C90.975060,113.960686 90.975060,120.421715 90.975060,126.882736 
	C90.742683,126.881065 90.510307,126.879395 90.277931,126.877716 
	C90.277931,111.029091 90.277931,95.180466 90.277931,79.331848 
	C90.510330,79.325165 90.742722,79.318489 90.975121,79.311813 
	C90.975121,88.374481 90.975121,97.437149 90.975090,106.999741 
z"/>
<path fill="#DDDDDD" opacity="1.000000" stroke="none" 
	d="
M216.202408,104.045265 
	C217.734268,106.858124 218.924301,109.853439 220.298096,113.311234 
	C217.462372,113.311234 215.127838,113.311234 212.147903,113.311234 
	C213.449600,110.126480 214.655090,107.177101 216.202408,104.045265 
z"/>
<path fill="#F5F5F5" opacity="1.000000" stroke="none" 
	d="
M292.884277,121.984268 
	C288.159271,121.418289 286.565796,118.498772 288.158417,114.989838 
	C288.910706,113.332420 292.615356,111.605064 294.240875,112.144310 
	C295.918518,112.700851 297.430176,115.920937 297.578156,118.074409 
	C297.660431,119.272270 294.813385,120.671356 292.884277,121.984268 
z"/>
<path fill="#F5F5F5" opacity="1.000000" stroke="none" 
	d="
M268.466980,112.792313 
	C268.699371,115.587349 269.209198,118.367851 268.301941,120.562546 
	C267.917236,121.493111 263.978577,122.070595 262.701569,121.226143 
	C261.196289,120.230736 260.037994,117.482353 260.130890,115.561806 
	C260.308105,111.897430 263.405396,110.932030 268.466980,112.792313 
z"/>
<path fill="#D2D2D2" opacity="1.000000" stroke="none" 
	d="
M315.935974,111.569794 
	C319.135284,109.034081 321.702118,109.101799 323.131561,114.128098 
	C320.674347,113.386017 318.217133,112.643936 315.935974,111.569794 
z"/>
</svg>